# xmcd
#
# Track frame offsets: 
#        150
#        12155
#        22090
#        35846
#        52525
#        64421
#        79775
#        88964
#        103626
#        115804
#        127115
#        139893
#
# Disc length: 2048 seconds
#
# Revision: 1
# Processed by: cddbd v1.5.2PL0 Copyright (c) Steve Scherf et al.
# Submitted via: ExactAudioCopy v1.3
#
DISCID=a507fe0c
DTITLE=Parker Millsap - Other Arrangements
DYEAR=2018
DGENRE=Country
TTITLE0=Fine Line
TTITLE1=Your Water
TTITLE2=Singing To Me
TTITLE3=Other Arrangements
TTITLE4=Let A Little Light In
TTITLE5=Tell Me
TTITLE6=Gotta Get To You
TTITLE7=Good Night
TTITLE8=Coming On
TTITLE9=Some People
TTITLE10=She
TTITLE11=Come Back When You Can't Stay
EXTD=
EXTT0=
EXTT1=
EXTT2=
EXTT3=
EXTT4=
EXTT5=
EXTT6=
EXTT7=
EXTT8=
EXTT9=
EXTT10=
EXTT11=
PLAYORDER=
